<svg width="17" height="16" viewBox="0 0 17 16" fill="none" xmlns="http://www.w3.org/2000/svg">
<path d="M15.1906 0.678137C14.5063 -0.0062378 13.4 -0.0062378 12.7156 0.678137L11.775 1.61564L14.8344 4.67501L15.775 3.73439C16.4594 3.05001 16.4594 1.94376 15.775 1.25939L15.1906 0.678137ZM5.84062 7.55314C5.65 7.74376 5.50312 7.97814 5.41875 8.23751L4.49375 11.0125C4.40313 11.2813 4.475 11.5781 4.675 11.7813C4.875 11.9844 5.17188 12.0531 5.44375 11.9625L8.21875 11.0375C8.475 10.9531 8.70937 10.8063 8.90312 10.6156L14.1313 5.38439L11.0688 2.32189L5.84062 7.55314ZM3.45312 2.00001C1.79688 2.00001 0.453125 3.34376 0.453125 5.00001V13C0.453125 14.6563 1.79688 16 3.45312 16H11.4531C13.1094 16 14.4531 14.6563 14.4531 13V10C14.4531 9.44689 14.0063 9.00001 13.4531 9.00001C12.9 9.00001 12.4531 9.44689 12.4531 10V13C12.4531 13.5531 12.0063 14 11.4531 14H3.45312C2.9 14 2.45312 13.5531 2.45312 13V5.00001C2.45312 4.44689 2.9 4.00001 3.45312 4.00001H6.45312C7.00625 4.00001 7.45312 3.55314 7.45312 3.00001C7.45312 2.44689 7.00625 2.00001 6.45312 2.00001H3.45312Z" fill="white"/>
</svg>
