<svg width="16" height="16" viewBox="0 0 16 16" fill="none" xmlns="http://www.w3.org/2000/svg">
<path d="M0.514529 6.33024C0.514529 5.471 0.675962 4.66645 0.998827 3.91657C1.32169 3.16148 1.76954 2.49752 2.34236 1.9247C2.91519 1.35187 3.57654 0.904028 4.32642 0.581163C5.08151 0.258298 5.88867 0.0968653 6.74791 0.0968653C7.60714 0.0968653 8.4117 0.258298 9.16158 0.581163C9.91667 0.904028 10.5806 1.35187 11.1534 1.9247C11.7263 2.49752 12.1741 3.16148 12.497 3.91657C12.8198 4.66645 12.9813 5.471 12.9813 6.33024C12.9813 7.04367 12.8667 7.72064 12.6376 8.36117C12.4137 9.00169 12.1012 9.58232 11.7002 10.1031L15.5199 13.9462C15.6033 14.0295 15.6657 14.1259 15.7074 14.2352C15.7543 14.3446 15.7777 14.4618 15.7777 14.5867C15.7777 14.7586 15.7387 14.9148 15.6605 15.0554C15.5876 15.196 15.4835 15.3054 15.3481 15.3835C15.2127 15.4668 15.0565 15.5085 14.8794 15.5085C14.7544 15.5085 14.6347 15.485 14.5201 15.4382C14.4107 15.3965 14.3092 15.3314 14.2155 15.2429L10.3723 11.3919C9.86199 11.7565 9.29958 12.0429 8.68509 12.2512C8.07061 12.4595 7.42488 12.5636 6.74791 12.5636C5.88867 12.5636 5.08151 12.4022 4.32642 12.0793C3.57654 11.7565 2.91519 11.3086 2.34236 10.7358C1.76954 10.163 1.32169 9.50161 0.998827 8.75173C0.675962 7.99664 0.514529 7.18948 0.514529 6.33024ZM1.85025 6.33024C1.85025 7.00722 1.97523 7.64253 2.22519 8.23619C2.48036 8.82463 2.83187 9.34278 3.27971 9.79062C3.73276 10.2385 4.25351 10.59 4.84196 10.8451C5.43562 11.1003 6.07093 11.2279 6.74791 11.2279C7.42488 11.2279 8.05759 11.1003 8.64604 10.8451C9.23969 10.59 9.76044 10.2385 10.2083 9.79062C10.6561 9.34278 11.0076 8.82463 11.2628 8.23619C11.518 7.64253 11.6456 7.00722 11.6456 6.33024C11.6456 5.65327 11.518 5.02056 11.2628 4.43211C11.0076 3.83845 10.6561 3.3177 10.2083 2.86986C9.76044 2.41681 9.23969 2.0653 8.64604 1.81534C8.05759 1.56017 7.42488 1.43259 6.74791 1.43259C6.07093 1.43259 5.43562 1.56017 4.84196 1.81534C4.25351 2.0653 3.73276 2.41681 3.27971 2.86986C2.83187 3.3177 2.48036 3.83845 2.22519 4.43211C1.97523 5.02056 1.85025 5.65327 1.85025 6.33024Z" fill="#005D97"/>
</svg>
